<svg width="60" height="25" viewBox="0 0 60 25" fill="none" xmlns="http://www.w3.org/2000/svg">
<path d="M57.4403 0.745605H1.89005C0.884159 0.745605 0.0687256 1.56104 0.0687256 2.56693V22.6015C0.0687256 23.6073 0.884159 24.4228 1.89005 24.4228H57.4403C58.4462 24.4228 59.2617 23.6073 59.2617 22.6015V2.56693C59.2617 1.56104 58.4462 0.745605 57.4403 0.745605Z" fill="#F6F7F9"/>
<path d="M57.4403 1.20117H1.89004C1.13562 1.20117 0.524048 1.81275 0.524048 2.56716V22.6017C0.524048 23.3561 1.13562 23.9677 1.89004 23.9677H57.4403C58.1947 23.9677 58.8063 23.3561 58.8063 22.6017V2.56716C58.8063 1.81275 58.1947 1.20117 57.4403 1.20117Z" stroke="#CED0D4"/>
<path d="M29.06 9.06996H30.31V15.13H33.94V16.21H29.06V9.06996ZM34.6722 9.06996H35.8122V10.15H34.6722V9.06996ZM34.6722 11.04H35.8122V16.21H34.6722V11.04ZM37.0843 9.06996H38.2243V13.13L40.2843 11.04H41.6843L39.7043 12.94L41.8743 16.21H40.4843L38.9043 13.7L38.2243 14.36V16.21H37.0843V9.06996ZM45.9754 13.17C45.9621 12.99 45.9221 12.8166 45.8554 12.65C45.7954 12.4833 45.7088 12.34 45.5954 12.22C45.4888 12.0933 45.3554 11.9933 45.1954 11.92C45.0421 11.84 44.8688 11.8 44.6754 11.8C44.4754 11.8 44.2921 11.8366 44.1254 11.91C43.9654 11.9766 43.8254 12.0733 43.7054 12.2C43.5921 12.32 43.4988 12.4633 43.4254 12.63C43.3588 12.7966 43.3221 12.9766 43.3154 13.17H45.9754ZM43.3154 13.92C43.3154 14.12 43.3421 14.3133 43.3954 14.5C43.4554 14.6866 43.5421 14.85 43.6554 14.99C43.7688 15.13 43.9121 15.2433 44.0854 15.33C44.2588 15.41 44.4654 15.45 44.7054 15.45C45.0388 15.45 45.3054 15.38 45.5054 15.24C45.7121 15.0933 45.8654 14.8766 45.9654 14.59H47.0454C46.9854 14.87 46.8821 15.12 46.7354 15.34C46.5888 15.56 46.4121 15.7466 46.2054 15.9C45.9988 16.0466 45.7654 16.1566 45.5054 16.23C45.2521 16.31 44.9854 16.35 44.7054 16.35C44.2988 16.35 43.9388 16.2833 43.6254 16.15C43.3121 16.0166 43.0454 15.83 42.8254 15.59C42.6121 15.35 42.4488 15.0633 42.3354 14.73C42.2288 14.3966 42.1754 14.03 42.1754 13.63C42.1754 13.2633 42.2321 12.9166 42.3454 12.59C42.4654 12.2566 42.6321 11.9666 42.8454 11.72C43.0654 11.4666 43.3288 11.2666 43.6354 11.12C43.9421 10.9733 44.2888 10.9 44.6754 10.9C45.0821 10.9 45.4454 10.9866 45.7654 11.16C46.0921 11.3266 46.3621 11.55 46.5754 11.83C46.7888 12.11 46.9421 12.4333 47.0354 12.8C47.1354 13.16 47.1621 13.5333 47.1154 13.92H43.3154Z" fill="#4B4F56"/>
<path fill-rule="evenodd" clip-rule="evenodd" d="M20.8558 11.0796H18.1721C18.2425 10.1931 18.2425 9.30238 18.1721 8.41589C18.0878 7.79429 17.8126 7.21421 17.3844 6.75575C17.236 6.6566 17.0574 6.61298 16.8801 6.63247C16.7027 6.65196 16.5379 6.73336 16.4146 6.86236C16.4146 6.86236 16.4492 8.30024 16.4492 8.62899C16.2685 9.22379 15.9376 9.76205 15.4884 10.1917C15.2908 10.3739 13.9885 10.8847 13.6989 11.0796V17.2948L19.2449 17.2857C20.2748 17.2857 20.5954 16.0427 19.9315 15.9271L19.9798 15.785C20.64 15.714 21.1755 14.613 20.3732 14.3816L20.4215 14.2487C21.048 14.1777 21.6499 13.1031 20.8158 12.8372L20.8631 12.7043C21.6982 12.5622 22.0351 11.2299 21.1655 11.2299L20.8558 11.0796ZM10.121 11.9675H12.8047V18.1828H10.121V11.9675Z" fill="#4B4F56"/>
</svg>
