<svg width="46" height="46" viewBox="0 0 46 46" fill="none" xmlns="http://www.w3.org/2000/svg">
<g clip-path="url(#clip0_608_4368)">
<path d="M23.0012 45.7679C35.5749 45.7679 45.7679 35.5749 45.7679 23.0012C45.7679 10.4274 35.5749 0.234375 23.0012 0.234375C10.4274 0.234375 0.234375 10.4274 0.234375 23.0012C0.234375 35.5749 10.4274 45.7679 23.0012 45.7679Z" fill="#0F6EFF"/>
<path d="M21.8478 31.2566L20.6758 30.073C18.7522 28.154 16.8317 26.239 14.9144 24.3279C14.8159 24.2295 14.8253 24.1685 14.8862 24.0607C15.8041 22.5182 16.8277 21.0411 17.9498 19.64C19.0042 18.2811 20.1583 17.0025 21.4024 15.8147C23.2774 13.9845 25.4095 12.4376 27.7311 11.2229C27.9327 11.1174 28.1436 11.0284 28.3405 10.9135C28.3903 10.8789 28.4516 10.8649 28.5115 10.8745C28.5714 10.8842 28.6252 10.9166 28.6616 10.9651C28.9429 11.2417 29.2359 11.5065 29.5148 11.7831C31.39 13.6442 33.2589 15.5053 35.1216 17.3664C35.1554 17.3897 35.1788 17.4253 35.1866 17.4656C35.1945 17.5059 35.1863 17.5477 35.1638 17.5821C34.1915 19.6147 32.9609 21.5134 31.5025 23.231C30.4178 24.5002 29.2427 25.6893 27.9866 26.7891C26.2731 28.2856 24.449 29.6505 22.5299 30.8722C22.333 30.9988 22.1244 31.1066 21.9228 31.2238L21.8478 31.2566ZM33.087 17.3125C33.087 16.8015 32.7284 16.5179 32.344 16.6093C32.232 16.6487 32.1293 16.7106 32.0422 16.7912C31.9551 16.8718 31.8855 16.9695 31.8377 17.0781C31.1228 18.3014 30.3199 19.471 29.4351 20.5776C28.5675 21.6433 27.6218 22.643 26.606 23.5685C26.2732 23.8732 25.9262 24.1639 25.5981 24.4756C25.4819 24.5811 25.412 24.7281 25.4037 24.8848C25.3953 25.0415 25.4492 25.1952 25.5536 25.3124C25.6005 25.3775 25.6606 25.4321 25.73 25.4725C25.7993 25.5129 25.8764 25.5382 25.9563 25.5468C26.0361 25.5554 26.1168 25.5472 26.1932 25.5225C26.2696 25.4979 26.34 25.4574 26.3997 25.4038C26.6341 25.2304 26.8545 25.0522 27.0677 24.86C28.2366 23.8178 29.3242 22.6878 30.3212 21.48C31.2773 20.3323 32.1292 19.1015 32.8667 17.8024C32.9493 17.6434 33.0228 17.4798 33.087 17.3125Z" fill="white"/>
<path d="M16.5739 31.9972C16.5364 32.8785 16.2012 33.6145 15.4394 34.0786C14.8054 34.4648 14.1469 34.8093 13.4681 35.11C12.3173 35.621 11.1453 36.0851 9.978 36.5656C9.82631 36.626 9.66939 36.6723 9.50921 36.7039C9.31701 36.7461 9.21387 36.6382 9.27482 36.4531C9.47639 35.8811 9.66625 35.3069 9.90534 34.7513C10.3741 33.6309 10.8921 32.5199 11.4031 31.4112C11.6095 30.9255 11.9017 30.4808 12.2657 30.0986C12.6856 29.6839 13.2507 29.4493 13.8408 29.4446C14.4165 29.3939 14.9917 29.5456 15.4675 29.8736C15.8099 30.1117 16.0895 30.4293 16.2822 30.7992C16.4749 31.1691 16.575 31.5801 16.5739 31.9972Z" fill="white"/>
<path d="M17.6685 17.9594C17.5302 18.1305 17.3943 18.3039 17.256 18.4774C16.1028 19.917 15.0292 21.4186 14.0401 22.9754C13.8268 23.313 13.8197 23.3083 13.4588 23.1442C12.7942 22.8504 12.0758 22.6979 11.3492 22.6965C10.5796 22.6721 9.8102 22.751 9.06152 22.9309C9.22091 22.734 9.34983 22.5629 9.48812 22.4035C10.3807 21.3298 11.4226 20.3897 12.5821 19.6119C13.7544 18.849 15.0615 18.3168 16.4332 18.0438C16.8294 17.9664 17.2396 17.9547 17.6427 17.9102L17.6685 17.9594Z" fill="white"/>
<path d="M27.9631 28.5024C28.0168 28.8055 28.004 29.1166 27.9256 29.4142C27.5579 31.4532 26.621 33.3465 25.2231 34.8756C24.6195 35.5715 23.9568 36.2138 23.2424 36.7953L23.0924 36.9078C23.1299 36.6078 23.1674 36.3336 23.1979 36.057C23.3151 34.9999 23.3596 33.9474 22.9916 32.9184C22.9352 32.7524 22.8678 32.5904 22.79 32.4332C22.7174 32.2973 22.7549 32.2363 22.8721 32.1567C23.7042 31.6035 24.5433 31.062 25.3543 30.4807C26.1653 29.8994 26.9951 29.2361 27.8178 28.6056C27.8624 28.5728 27.9069 28.547 27.9631 28.5024Z" fill="white"/>
<path d="M29.8784 10.2829C29.8784 10.2829 33.249 8.87657 36.4673 9.12737C36.5899 9.13255 36.7062 9.1836 36.793 9.27042C36.8798 9.35724 36.9309 9.47349 36.9361 9.59616C36.9633 11.858 36.5657 14.1049 35.7641 16.2202L29.8784 10.2829Z" fill="white"/>
</g>
<defs>
<clipPath id="clip0_608_4368">
<rect width="46" height="46" fill="white"/>
</clipPath>
</defs>
</svg>
